<?xml version="1.0" encoding="UTF-8"?>
<svg version="1.1" xmlns="http://www.w3.org/2000/svg" width="254" height="223">
<path d="M0 0 C28.49988999 7.56975478 50.54438248 25.12738261 65.58837891 50.26904297 C77.90711633 71.82061187 80.11685546 97.4722238 74.05126953 121.28051758 C72.29352998 127.67910343 70.09853356 133.63992568 66.92041016 139.47998047 C66.57751953 140.19283203 66.23462891 140.90568359 65.88134766 141.64013672 C53.80901288 165.56767794 30.49296488 182.19474347 5.57666016 190.67529297 C-4.26732067 193.6574401 -13.7726282 195.64272171 -24.09521484 195.61279297 C-24.83286072 195.61374969 -25.57050659 195.61470642 -26.33050537 195.61569214 C-27.87675055 195.61636807 -29.42299867 195.61455506 -30.96923828 195.61035156 C-33.33681551 195.60496403 -35.7042057 195.61033215 -38.07177734 195.61669922 C-39.57959026 195.61603893 -41.08740306 195.6147588 -42.59521484 195.61279297 C-43.3014801 195.6148172 -44.00774536 195.61684143 -44.7354126 195.618927 C-47.79509096 195.604267 -50.15259307 195.45564606 -53.07958984 194.47998047 C-60.86256412 157.45418052 -54.6202775 117.62019105 -34.91943359 85.27685547 C-22.73516619 66.75469949 -2.01469774 42.90411213 20.92041016 37.47998047 C26.01664934 37.71591747 28.2619813 39.20074872 31.73291016 42.85498047 C32.50248047 43.64646484 33.27205078 44.43794922 34.06494141 45.25341797 C35.92041016 47.47998047 35.92041016 47.47998047 36.92041016 50.47998047 C34.76332592 52.86192797 32.83463669 54.15466389 29.89306641 55.42529297 C29.10689941 55.77495117 28.32073242 56.12460938 27.51074219 56.48486328 C26.67655762 56.85450195 25.84237305 57.22414062 24.98291016 57.60498047 C6.29661602 66.22294059 -8.35954179 79.95290571 -19.07958984 97.47998047 C-19.42860352 98.04910156 -19.77761719 98.61822266 -20.13720703 99.20458984 C-28.01216803 112.28355732 -33.29616515 127.28612855 -35.07958984 142.47998047 C-35.24394531 143.87216797 -35.24394531 143.87216797 -35.41162109 145.29248047 C-36.4031767 155.65754174 -36.1754656 166.07967378 -36.07958984 176.47998047 C-7.63525774 175.60057148 17.88135115 168.54616943 38.10791016 147.29248047 C52.13134442 130.76896674 58.43484934 109.92938435 56.92041016 88.47998047 C54.44125963 66.57330492 43.38298008 48.76612467 26.92041016 34.47998047 C14.44322622 24.75917001 -4.0326584 16.36042711 -20.07958984 17.47998047 C-21.52698216 26.70710649 -21.34660164 35.87568043 -20.57958984 45.16748047 C-20.49708984 46.23611328 -20.41458984 47.30474609 -20.32958984 48.40576172 C-20.17034351 50.36399394 -19.98555283 52.32043629 -19.76708984 54.27294922 C-19.32211075 60.40068222 -19.32211075 60.40068222 -21.43115234 63.40576172 C-23.23915737 65.20181957 -25.14250641 66.82514671 -27.07958984 68.47998047 C-29.14911658 70.76050017 -31.1028198 73.1174992 -33.07958984 75.47998047 C-34.56458984 74.98498047 -34.56458984 74.98498047 -36.07958984 74.47998047 C-43.03854346 56.69598788 -41.84809706 33.18377795 -40.07958984 14.47998047 C-40.01223633 13.73522461 -39.94488281 12.99046875 -39.87548828 12.22314453 C-38.77169615 0.63589413 -38.77169615 0.63589413 -36.95458984 -2.39892578 C-27.95257232 -7.78138209 -9.62207095 -2.40608255 0 0 Z " fill="#12617F" transform="translate(91.07958984375,18.52001953125)"/>
<path d="M0 0 C3.10022768 2.22289775 6.07133389 4.55680647 9 7 C9.98226562 7.76828125 10.96453125 8.5365625 11.9765625 9.328125 C24.81533304 20.06251077 31.15328973 37.63186131 32.875 53.75 C33.74819134 71.40786928 27.3817462 87.58579912 16 101 C15.39414063 101.80308594 14.78828125 102.60617188 14.1640625 103.43359375 C2.44826855 117.32759488 -16.61508795 124.67537996 -34.32421875 126.49609375 C-40.70254239 127.01881221 -46.66402713 127.06822709 -53 126 C-52.71638189 121.32030118 -50.5743902 119.06414471 -47.53515625 115.7734375 C-45.77737154 113.86056427 -45.77737154 113.86056427 -44.125 110.6875 C-41.24184814 107.04116088 -38.36470602 106.72860752 -34 106 C-17.7617839 102.92216819 -4.99897013 96.54239335 5 83 C6.11824752 81.03062732 7.18090651 79.02871284 8.1875 77 C8.69667969 75.989375 9.20585937 74.97875 9.73046875 73.9375 C14.03394683 63.9799138 13.33286583 50.68872742 10 40.5 C4.27688225 26.65581013 -6.50406483 18.01572232 -19.98046875 12.0390625 C-23.06492889 10.89204918 -23.06492889 10.89204918 -26.67578125 10.3359375 C-33.97054237 9.00161938 -38.31714226 7.55756149 -42.65600586 1.51123047 C-44.6812789 -1.61368673 -46.45324692 -4.60101012 -48 -8 C-47.67 -8.99 -47.34 -9.98 -47 -11 C-31.64301702 -14.69705146 -12.81543194 -8.481711 0 0 Z " fill="#11607D" transform="translate(198,60)"/>
<path d="M0 0 C0.33 0 0.66 0 1 0 C0.99476318 1.29212402 0.98952637 2.58424805 0.98413086 3.91552734 C0.96606633 8.69758413 0.95456264 13.47963789 0.94506836 18.26171875 C0.94003148 20.33366401 0.93320175 22.4056057 0.92456055 24.47753906 C0.91246679 27.45118082 0.90676533 30.42477569 0.90234375 33.3984375 C0.89718246 34.32868744 0.89202118 35.25893738 0.88670349 36.21737671 C0.88659019 37.50848862 0.88659019 37.50848862 0.88647461 38.82568359 C0.884254 39.58513275 0.88203339 40.34458191 0.87974548 41.12704468 C0.88398961 43.09213361 0.88398961 43.09213361 2 45 C1.979375 46.175625 1.95875 47.35125 1.9375 48.5625 C1.87094074 52.60782407 2.58113143 56.20534336 3.5625 60.1171875 C4 62 4 62 4 64 C7.91603304 61.20579508 7.91603304 61.20579508 10 57 C10.66386719 56.54625 11.32773438 56.0925 12.01171875 55.625 C14.20548744 54.1534837 14.20548744 54.1534837 14.64453125 51.625 C14.69996094 50.75875 14.75539063 49.8925 14.8125 49 C14.88082031 48.13375 14.94914062 47.2675 15.01953125 46.375 C15.12084361 43.84850471 15.12084361 43.84850471 14 41 C13.7948223 36.56678244 13.8141979 32.13123416 13.81469727 27.69384766 C13.81250795 25.50794081 13.79433143 23.32253653 13.77539062 21.13671875 C13.77245699 19.74739756 13.77047199 18.35807397 13.76953125 16.96875 C13.76542236 15.70482422 13.76131348 14.44089844 13.75708008 13.13867188 C14.00933355 9.87940486 14.65053432 8.34946568 17 6 C33.53599782 3.80240552 54.04502651 14.22148636 67 24 C67 24.66 67 25.32 67 26 C67.99 26 68.98 26 70 26 C72.62907753 28.38280951 74.75550448 31.25722647 77 34 C77.96679688 35.10408203 77.96679688 35.10408203 78.953125 36.23046875 C88.2250035 47.12675116 93.74465448 59.10938953 97 73 C97.35384766 74.22009766 97.35384766 74.22009766 97.71484375 75.46484375 C100.6097204 86.53348976 98.6139786 99.37984409 96.40234375 110.421875 C95.95105799 113.31360897 95.9359183 116.07787453 96 119 C94.515 119.495 94.515 119.495 93 120 C93 120.66 93 121.32 93 122 C92.01451152 123.01430393 91.01180513 124.01194617 90 125 C89.08756447 126.30800007 88.21283976 127.64300799 87.375 129 C86.94960937 129.680625 86.52421875 130.36125 86.0859375 131.0625 C84.85937492 133.10857366 84.85937492 133.10857366 84 136 C82.37291023 137.72878288 80.71308921 139.35929484 79 141 C77.45562629 142.53895486 75.91415786 144.0808286 74.375 145.625 C72.91666667 147.08333333 71.45833333 148.54166667 70 150 C69.46632813 150.55042969 68.93265625 151.10085937 68.3828125 151.66796875 C65.51041753 154.43488029 63.001854 156 59 156 C59 156.66 59 157.32 59 158 C45.57517467 165.17783419 32.30069204 170.44547764 17 172 C16.31099609 172.07234863 15.62199219 172.14469727 14.91210938 172.21923828 C12.71362393 172.44035032 10.51467465 172.63208681 8.3125 172.8125 C7.61648682 172.87791992 6.92047363 172.94333984 6.20336914 173.01074219 C4.23828125 173.14453125 4.23828125 173.14453125 1 173 C-6.48994101 161.76508849 -1.39988402 138.93431981 0.8125 126.375 C0.96549561 125.4876416 1.11849121 124.6002832 1.27612305 123.68603516 C4.11859069 108.707173 11.82396306 94.43312432 20.1875 81.8125 C20.5911377 81.20124268 20.99477539 80.58998535 21.41064453 79.96020508 C23.95073022 76.23311981 26.76698461 73.16600989 30 70 C30.33 69.2575 30.66 68.515 31 67.75 C32 66 32 66 34.625 65.25 C35.40875 65.1675 36.1925 65.085 37 65 C37 64.01 37 63.02 37 62 C39.51953125 60.0625 39.51953125 60.0625 42.8125 58 C46.22424656 55.84778711 49.17117836 53.85559282 52 51 C52.66 51 53.32 51 54 51 C54 50.34 54 49.68 54 49 C54.94875 48.7525 55.8975 48.505 56.875 48.25 C61.72687419 46.87513627 66.34689714 44.92865028 71 43 C68.69619174 38.94090926 66.87625283 36.04820429 62.76953125 33.75390625 C58.96952891 32.71949094 57.4769523 33.7705613 54.0625 35.625 C53.01449219 36.18703125 51.96648437 36.7490625 50.88671875 37.328125 C47.82369563 39.10210862 44.91902622 41.00277154 42 43 C41.34 43 40.68 43 40 43 C40 43.66 40 44.32 40 45 C39.071875 45.433125 38.14375 45.86625 37.1875 46.3125 C34.48254066 47.7445373 33.0458389 48.85186916 31 51 C30.34 51 29.68 51 29 51 C29 51.66 29 52.32 29 53 C28.34 53.66 27.68 54.32 27 55 C26.54625 55.474375 26.0925 55.94875 25.625 56.4375 C24 58 24 58 22 59.375 C19.83289094 60.9414076 19.83289094 60.9414076 18.5 63.5625 C17 66 17 66 15.15234375 66.7265625 C11.95017351 68.62113146 10.72301318 71.6065587 9.0625 74.8125 C6.53799784 79.65408029 4.05088686 83.30136417 0 87 C0.38267084 81.05460177 3.0307201 77.46456712 6.4375 72.8125 C6.98100098 72.06145996 7.52450195 71.31041992 8.08447266 70.53662109 C19.72268855 54.67746699 38.98023474 34.73465584 59 30 C64.09623918 30.235937 66.34157114 31.72076825 69.8125 35.375 C70.58207031 36.16648438 71.35164063 36.95796875 72.14453125 37.7734375 C74 40 74 40 75 43 C72.84291577 45.3819475 70.91422653 46.67468342 67.97265625 47.9453125 C67.18648926 48.2949707 66.40032227 48.64462891 65.59033203 49.00488281 C64.75614746 49.37452148 63.92196289 49.74416016 63.0625 50.125 C44.37620586 58.74296012 29.72004805 72.47292524 19 90 C18.65098633 90.56912109 18.30197266 91.13824219 17.94238281 91.72460938 C10.06742182 104.80357685 4.78342469 119.80614808 3 135 C2.83564453 136.3921875 2.83564453 136.3921875 2.66796875 137.8125 C1.67641314 148.17756127 1.90412425 158.59969331 2 169 C30.4443321 168.12059101 55.96094099 161.06618896 76.1875 139.8125 C90.21093426 123.28898627 96.51443918 102.44940388 95 81 C92.52084947 59.09332445 81.46256993 41.28614421 65 27 C52.52281606 17.27918954 34.04693144 8.88044664 18 10 C16.55260768 19.22712602 16.7329882 28.39569997 17.5 37.6875 C17.62375 39.29044922 17.62375 39.29044922 17.75 40.92578125 C17.90924633 42.88401347 18.09403701 44.84045582 18.3125 46.79296875 C18.7574791 52.92070175 18.7574791 52.92070175 16.6484375 55.92578125 C14.84043247 57.72183911 12.93708344 59.34516624 11 61 C8.93047326 63.2805197 6.97677004 65.63751873 5 68 C4.01 67.67 3.02 67.34 2 67 C-5.21952567 48.55010108 -6.10979187 18.90529862 0 0 Z " fill="#194C61" transform="translate(53,26)"/>
<path d="M0 0 C1.76953125 0.07421875 1.76953125 0.07421875 4 1 C5.39822866 3.2665077 6.55312929 5.41956806 7.6875 7.8125 C10.92928073 14.29683886 14.59998704 19.82193489 19.1171875 25.51171875 C20.72352176 27.63461278 21.9226021 29.57868999 23 32 C23.66 32 24.32 32 25 32 C26.14000538 33.14000538 27.27604537 34.28418639 28.39453125 35.4453125 C34.24198582 41.10781108 41.18520134 45.60179661 48 50 C45.81672637 54.16873388 43.38652981 56.62923459 39.625 59.4375 C38.68914062 60.15808594 37.75328125 60.87867188 36.7890625 61.62109375 C34 63 34 63 31.453125 62.421875 C14.99347232 52.88156676 -1.691598 36.86761917 -9 19 C-8.88705726 14.33922958 -6.26750789 10.59499164 -3.9375 6.6875 C-3.56044922 6.04232422 -3.18339844 5.39714844 -2.79492188 4.73242188 C-1.86962507 3.15121848 -0.93567319 1.5750854 0 0 Z " fill="#14617F" transform="translate(78,113)"/>
<path d="M0 0 C3.10022768 2.22289775 6.07133389 4.55680647 9 7 C9.98226562 7.76828125 10.96453125 8.5365625 11.9765625 9.328125 C24.81533304 20.06251077 31.15328973 37.63186131 32.875 53.75 C33.74819134 71.40786928 27.3817462 87.58579912 16 101 C15.39414063 101.80308594 14.78828125 102.60617188 14.1640625 103.43359375 C2.44826855 117.32759488 -16.61508795 124.67537996 -34.32421875 126.49609375 C-40.70254239 127.01881221 -46.66402713 127.06822709 -53 126 C-52.71638189 121.32030118 -50.5743902 119.06414471 -47.53515625 115.7734375 C-45.77737154 113.86056427 -45.77737154 113.86056427 -44.125 110.6875 C-41.24184814 107.04116088 -38.36470602 106.72860752 -34 106 C-17.7617839 102.92216819 -4.99897013 96.54239335 5 83 C6.11824752 81.03062732 7.18090651 79.02871284 8.1875 77 C8.69667969 75.989375 9.20585937 74.97875 9.73046875 73.9375 C12.14414162 68.35263231 12.15466723 63.17533508 12.125 57.1875 C12.12886719 56.41857422 12.13273437 55.64964844 12.13671875 54.85742188 C12.1282177 49.82055194 11.71633268 44.98590284 11 40 C11.66 40 12.32 40 13 40 C17.46195846 49.81630861 17.46602279 62.81743563 14 73 C10.79001637 80.74030014 6.3448987 88.39248142 0 94 C-0.66 94 -1.32 94 -2 94 C-2 94.66 -2 95.32 -2 96 C-4.22088246 97.61815634 -6.42770138 99.10415176 -8.75 100.5625 C-9.38421875 100.97435547 -10.0184375 101.38621094 -10.671875 101.81054688 C-13.76519297 103.77931488 -16.43319233 105.21843406 -20 106 C-21.35725864 106.47033715 -22.71129127 106.95005461 -24.0625 107.4375 C-27.63041163 108.68568031 -30.93798466 109.25840015 -34.6875 109.6875 C-39.00537758 110.39406179 -40.87659973 111.35326415 -43.5 114.875 C-44.350741 116.23929806 -45.18434843 117.61443804 -46 119 C-46.98580769 120.34386048 -47.98210025 121.68028114 -49 123 C-35.79652662 123.30160218 -24.06133272 122.96535229 -12 117 C-10.39690988 116.33074878 -8.79274746 115.66406003 -7.1875 115 C-3.72256673 113.47470875 -1.59678655 111.7822713 1 109 C2.299375 108.505 2.299375 108.505 3.625 108 C6.57035924 106.75984874 6.65026571 105.78382698 8 103 C8.76441406 102.55011719 9.52882812 102.10023438 10.31640625 101.63671875 C20.71028696 95.29751057 25.05866282 82.22216721 28.14453125 71.08203125 C29.16000677 66.81373169 29.34487128 62.68738317 29.3125 58.3125 C29.30831055 57.53084473 29.30412109 56.74918945 29.29980469 55.94384766 C29.10281707 45.70677813 26.83132941 36.99626856 22 28 C22 27.01 22 26.02 22 25 C21.34 25 20.68 25 20 25 C18.73828125 23.27734375 18.73828125 23.27734375 17.3125 20.9375 C13.45971895 14.96521838 9.40604174 10.17079732 3 7 C1.33333333 5.33333333 -0.33333333 3.66666667 -2 2 C-9.22364796 -2.87814568 -18.37228128 -5.19742151 -27 -6 C-27 -6.66 -27 -7.32 -27 -8 C-32.28 -8 -37.56 -8 -43 -8 C-43 -6.68 -43 -5.36 -43 -4 C-42.34 -4 -41.68 -4 -41 -4 C-39.47551369 -1.0173094 -38.06059933 1.818202 -37 5 C-35.86820313 5.06058594 -34.73640625 5.12117188 -33.5703125 5.18359375 C-32.08852855 5.26799917 -30.6067584 5.35264717 -29.125 5.4375 C-28.37863281 5.47681641 -27.63226563 5.51613281 -26.86328125 5.55664062 C-21.2265625 5.88671875 -21.2265625 5.88671875 -19 7 C-19 7.66 -19 8.32 -19 9 C-18.21496094 9.36351563 -17.42992187 9.72703125 -16.62109375 10.1015625 C-10.30106629 13.12587012 -4.9710126 16.0289874 0 21 C0 21.66 0 22.32 0 23 C0.59554687 23.25265625 1.19109375 23.5053125 1.8046875 23.765625 C6.58004461 26.45070124 9.42109683 31.5264283 11.375 36.5 C11.58125 37.325 11.7875 38.15 12 39 C8.15589417 37.71863139 7.84782356 36.40185441 5.875 32.9375 C-0.95976477 21.98489559 -12.30625976 13.60653486 -25.02929688 10.50537109 C-26.97685198 10.14391482 -28.92591678 9.79062338 -30.875 9.4375 C-38.55270606 7.67700689 -41.27887123 3.72622442 -45.29638672 -2.60571289 C-46.4375 -4.56640625 -46.4375 -4.56640625 -48 -8 C-47.67 -8.99 -47.34 -9.98 -47 -11 C-31.64301702 -14.69705146 -12.81543194 -8.481711 0 0 Z " fill="#15495F" transform="translate(198,60)"/>
<path d="M0 0 C19.09791374 2.16748075 37.84394453 16.10747161 49.9375 30.5 C66.83401763 52.55653199 75.68561146 76.94308323 73 105 C71.31988776 116.14455077 68.40517823 127.06755466 63 137 C62.65710938 137.71285156 62.31421875 138.42570313 61.9609375 139.16015625 C49.88860273 163.08769747 26.57255473 179.714763 1.65625 188.1953125 C-8.18773083 191.17745963 -17.69303835 193.16274124 -28.015625 193.1328125 C-28.75327087 193.13376923 -29.49091675 193.13472595 -30.25091553 193.13571167 C-31.79716071 193.1363876 -33.34340882 193.13457459 -34.88964844 193.13037109 C-37.25722566 193.12498356 -39.62461585 193.13035168 -41.9921875 193.13671875 C-43.50000042 193.13605846 -45.00781322 193.13477833 -46.515625 193.1328125 C-47.22189026 193.13483673 -47.92815552 193.13686096 -48.65582275 193.13894653 C-51.71550112 193.12428653 -54.07300323 192.97566559 -57 192 C-63.51281656 161.01669791 -61.34534398 121.90185836 -45 94 C-43.515 93.505 -43.515 93.505 -42 93 C-43.37227941 97.31194905 -45.02175363 101.4092914 -46.8125 105.5625 C-54.55065505 124.85511658 -55.50780727 142.67841521 -55.03018188 163.18757629 C-54.93868759 168.28565251 -55.32172391 173.24252615 -55.83496094 178.30834961 C-56.08064263 182.31521455 -55.59448568 186.03676215 -55 190 C-50.28605527 190.02485249 -45.5721493 190.04293186 -40.8581543 190.05493164 C-39.25691055 190.05993805 -37.65567133 190.06674515 -36.05444336 190.07543945 C-33.74331542 190.08766764 -31.43224831 190.09326536 -29.12109375 190.09765625 C-28.41351425 190.10281754 -27.70593475 190.10797882 -26.97691345 190.11329651 C-22.56484216 190.11378645 -18.34228858 189.79086356 -14 189 C-13.67 188.67 -13.34 188.34 -13 188 C-11.48300635 187.74665901 -9.96093959 187.52364736 -8.4375 187.3125 C3.28258324 185.25232912 14.10384425 180.53036526 24 174 C24.82113281 173.51660156 25.64226562 173.03320312 26.48828125 172.53515625 C33.52331854 168.23535897 40.39886394 162.90170409 45 156 C45.66 156 46.32 156 47 156 C47 155.34 47 154.68 47 154 C47.73347656 153.27425781 48.46695313 152.54851562 49.22265625 151.80078125 C63.38875228 137.5151401 69.94560042 114.38991871 70.3125 94.75 C70.14089954 87.59998094 69.65505117 80.13762793 66.9765625 73.44140625 C66.02557143 71.06392857 65.61299156 69.02365563 65.25 66.5 C62.58850125 52.6148166 54.11721533 39.86493373 44.50390625 29.77734375 C43 28 43 28 43 26 C41.35 25.67 39.7 25.34 38 25 C37.505 23.515 37.505 23.515 37 22 C30.92047149 16.81068817 24.09506477 12.63916606 17 9 C16.32195312 8.64164063 15.64390625 8.28328125 14.9453125 7.9140625 C11.54518262 6.15446221 8.17081363 4.65909738 4.5625 3.375 C1 2 1 2 0 0 Z " fill="#1A4B5F" transform="translate(95,21)"/>
<path d="M0 0 C1.87280273 0.29760742 1.87280273 0.29760742 4 1 C5.52910915 3.43307387 6.81477005 5.74251289 8.0625 8.3125 C11.0835633 14.4294688 11.0835633 14.4294688 15 20 C14.67 20.66 14.34 21.32 14 22 C13.3503125 21.0409375 13.3503125 21.0409375 12.6875 20.0625 C11.08760823 17.73253997 11.08760823 17.73253997 8 17 C5 11.77777778 5 11.77777778 5 9 C2.16926564 8.49830585 2.16926564 8.49830585 -1 9 C-3.57254591 11.84334021 -4.83327818 13.91552912 -5.41796875 17.71875 C-4.82866744 22.34504066 -2.64701411 25.16477318 0.0625 28.875 C0.56910156 29.585354 1.07570313 30.29570801 1.59765625 31.02758789 C8.15723572 40.12963191 15.11571121 47.0943655 24 54 C24.68835938 54.56589844 25.37671875 55.13179687 26.0859375 55.71484375 C28.58698479 57.68619325 30.33021643 58.96732763 33.5625 59.125 C36.8968453 57.5860714 39.22456803 55.40537437 42 53 C42.66 53 43.32 53 44 53 C42.61541685 49.58136428 41.45672162 48.4447074 38.125 46.9375 C29.49701501 42.45597382 22.78306712 34.83257856 16 28 C16.33 27.34 16.66 26.68 17 26 C17.763125 26.804375 18.52625 27.60875 19.3125 28.4375 C21.79430898 31.16799024 21.79430898 31.16799024 25 32 C26.15172381 33.15172381 27.3001554 34.30697283 28.4296875 35.48046875 C34.26638347 41.12841584 41.20027306 45.61152375 48 50 C45.81672637 54.16873388 43.38652981 56.62923459 39.625 59.4375 C38.68914062 60.15808594 37.75328125 60.87867188 36.7890625 61.62109375 C34 63 34 63 31.453125 62.421875 C14.99347232 52.88156676 -1.691598 36.86761917 -9 19 C-8.88705726 14.33922958 -6.26750789 10.59499164 -3.9375 6.6875 C-3.56044922 6.04232422 -3.18339844 5.39714844 -2.79492188 4.73242188 C-1.86962507 3.15121848 -0.93567319 1.5750854 0 0 Z " fill="#16485D" transform="translate(78,113)"/>
<path d="M0 0 C5.45678939 0.62962954 9.13439175 4.9155023 12.37890625 8.98046875 C23.66549401 25.55701357 30.49043977 42.37227503 27.0625 62.875 C24.77187382 74.7130253 18.75908533 85.84288128 11 95 C10.319375 95.9075 9.63875 96.815 8.9375 97.75 C3.68449198 103.85026738 3.68449198 103.85026738 -0.8125 104.25 C-1.534375 104.1675 -2.25625 104.085 -3 104 C-3 104.66 -3 105.32 -3 106 C-3.66 105.67 -4.32 105.34 -5 105 C-4 103 -4 103 -1.5625 102.125 C1.5251177 100.76946052 1.58542192 99.91756728 3 97 C3.76441406 96.55011719 4.52882812 96.10023438 5.31640625 95.63671875 C15.71028696 89.29751057 20.05866282 76.22216721 23.14453125 65.08203125 C24.16000677 60.81373169 24.34487128 56.68738317 24.3125 52.3125 C24.30831055 51.53084473 24.30412109 50.74918945 24.29980469 49.94384766 C24.10281707 39.70677813 21.83132941 30.99626856 17 22 C17 21.01 17 20.02 17 19 C16.34 19 15.68 19 15 19 C13.73828125 17.27734375 13.73828125 17.27734375 12.3125 14.9375 C9.1428648 10.00782167 5.36463984 4.68231992 0 2 C0 1.34 0 0.68 0 0 Z " fill="#14455A" transform="translate(203,66)"/>
<path d="M0 0 C0.33 0.66 0.66 1.32 1 2 C0.19466523 3.86498579 -0.69829955 5.69224936 -1.625 7.5 C-5.2231761 15.03106626 -7.47624694 22.75247825 -9.46313477 30.84521484 C-9.80642164 32.22304567 -10.17688564 33.59456734 -10.58178711 34.95556641 C-12.71032935 42.76740071 -12.18050472 50.85240186 -12.0625 58.875 C-12.02557436 61.85152795 -11.99532168 64.82801659 -11.97265625 67.8046875 C-11.96706696 68.51477966 -11.96147766 69.22487183 -11.95571899 69.95648193 C-11.93926714 75.684899 -12.30400529 81.31668404 -13 87 C-13.33 87 -13.66 87 -14 87 C-14.95043457 75.64570132 -15.11033706 64.38923617 -15 53 C-15.33 53 -15.66 53 -16 53 C-15.53369373 44.8441413 -14.39589789 37.16258252 -12.375 29.25 C-12.11428711 28.21738037 -11.85357422 27.18476074 -11.58496094 26.12084961 C-9.28234553 17.37865894 -6.36886902 8.93828005 -2 1 C-1.34 0.67 -0.68 0.34 0 0 Z " fill="#184B5F" transform="translate(52,114)"/>
<path d="M0 0 C1.87280273 0.29760742 1.87280273 0.29760742 4 1 C5.52910915 3.43307387 6.81477005 5.74251289 8.0625 8.3125 C11.0835633 14.4294688 11.0835633 14.4294688 15 20 C14.67 20.66 14.34 21.32 14 22 C13.3503125 21.0409375 13.3503125 21.0409375 12.6875 20.0625 C11.08760823 17.73253997 11.08760823 17.73253997 8 17 C5 11.77777778 5 11.77777778 5 9 C2.16926564 8.49830585 2.16926564 8.49830585 -1 9 C-3.57703539 11.84830227 -4.83475669 13.92051333 -5.41796875 17.73046875 C-4.83352849 22.30221172 -2.6324213 25.04015672 0.0625 28.6875 C1.81969559 31.08876728 3.42551964 33.46611665 5 36 C4.67 36.99 4.34 37.98 4 39 C2.39038739 36.7954649 0.78727855 34.58665491 -0.8125 32.375 C-1.26431641 31.75753906 -1.71613281 31.14007813 -2.18164062 30.50390625 C-9.0480098 20.98120447 -9.0480098 20.98120447 -8.94140625 16.58203125 C-7.65026624 13.04077171 -5.86401135 9.91831609 -3.9375 6.6875 C-3.56044922 6.04232422 -3.18339844 5.39714844 -2.79492188 4.73242188 C-1.86962507 3.15121848 -0.93567319 1.5750854 0 0 Z " fill="#1B4B61" transform="translate(78,113)"/>
<path d="M0 0 C9.22200701 0.33780245 17.22969698 2.21062848 26 5 C22.26182076 6.24605975 20.53291565 5.5522163 16.75 4.5625 C11.97700714 3.38925036 7.89187961 2.65870607 3 3 C1.38162514 13.31713973 1.88176998 23.52996375 2.77734375 33.8984375 C3.09119654 38.27035176 3.0889876 42.61983255 3 47 C2.67 47 2.34 47 2 47 C1.92652344 46.09507813 1.92652344 46.09507813 1.8515625 45.171875 C1.77679688 44.37265625 1.70203125 43.5734375 1.625 42.75 C1.55539063 41.96109375 1.48578125 41.1721875 1.4140625 40.359375 C1.14649305 38.01785751 1.14649305 38.01785751 -0.01147461 36.29418945 C-1.38412475 33.10851562 -1.24176764 30.39482127 -1.23046875 26.93359375 C-1.23001053 26.25829117 -1.22955231 25.58298859 -1.2290802 24.88722229 C-1.22606775 23.46426631 -1.21821164 22.04131333 -1.20581055 20.6184082 C-1.18753316 18.44145013 -1.18530119 16.26491751 -1.18554688 14.08789062 C-1.14776543 3.4432963 -1.14776543 3.4432963 0 0 Z " fill="#194E63" transform="translate(68,33)"/>
<path d="M0 0 C1.32 0.33 2.64 0.66 4 1 C-12.29794485 11.7497083 -32.01389398 19.83101767 -52 16.5 C-52.99 16.335 -53.98 16.17 -55 16 C-54.67 15.01 -54.34 14.02 -54 13 C-54 13.66 -54 14.32 -54 15 C-50.77016338 14.88957056 -47.54143474 14.75907341 -44.3125 14.625 C-42.94448242 14.57859375 -42.94448242 14.57859375 -41.54882812 14.53125 C-36.93857957 14.33007552 -33.21256231 14.04744649 -29 12 C-27.01184828 11.51899555 -25.02367733 11.03806893 -23.03515625 10.55859375 C-19.0861379 9.47469812 -15.44403693 7.66839706 -11.73828125 5.953125 C-4.28485577 2.55288462 -4.28485577 2.55288462 0 2 C0 1.34 0 0.68 0 0 Z " fill="#244D61" transform="translate(200,170)"/>
<path d="M0 0 C5.72023418 0.70997501 11.36423373 1.80208933 17 3 C17.79921875 3.13535156 18.5984375 3.27070313 19.421875 3.41015625 C19.94265625 3.60480469 20.4634375 3.79945312 21 4 C21.495 5.485 21.495 5.485 22 7 C19.35346869 6.69268013 16.707885 6.37940678 14.0625 6.0625 C13.30775391 5.97548828 12.55300781 5.88847656 11.77539062 5.79882812 C6.11328125 5.11328125 6.11328125 5.11328125 5 4 C3.44051458 3.84313751 1.87457332 3.74923361 0.30859375 3.68359375 C-0.63564453 3.64169922 -1.57988281 3.59980469 -2.55273438 3.55664062 C-3.54595703 3.51732422 -4.53917969 3.47800781 -5.5625 3.4375 C-6.55958984 3.39431641 -7.55667969 3.35113281 -8.58398438 3.30664062 C-11.0558415 3.20019702 -13.5278031 3.09818072 -16 3 C-16.33 3.99 -16.66 4.98 -17 6 C-17.66 5.01 -18.32 4.02 -19 3 C-15.09169111 -2.47163245 -6.0354787 -0.4861559 0 0 Z " fill="#13536A" transform="translate(72,15)"/>
<path d="M0 0 C10.18512535 9.12921602 12.62592194 25.1241178 15 38 C13.515 38.495 13.515 38.495 12 39 C11.88519287 38.4423999 11.77038574 37.8847998 11.65209961 37.31030273 C9.30467924 26.14658152 6.61316784 15.99260142 1.35546875 5.8359375 C0 3 0 3 0 0 Z " fill="#16485D" transform="translate(137,71)"/>
<path d="M0 0 C3.96 0 7.92 0 12 0 C12 0.33 12 0.66 12 1 C11.34773438 1.0515625 10.69546875 1.103125 10.0234375 1.15625 C4.58342293 1.83887094 4.58342293 1.83887094 0.10546875 4.7734375 C-1.37993055 6.79658895 -2.7002573 8.85400737 -4 11 C-4.99 12.32 -5.98 13.64 -7 15 C-0.07 15 6.86 15 14 15 C10.25549268 16.87225366 9.14972809 17.24550933 5.234375 17.1953125 C4.34492188 17.18886719 3.45546875 17.18242187 2.5390625 17.17578125 C1.61867187 17.15902344 0.69828125 17.14226562 -0.25 17.125 C-1.18585938 17.11597656 -2.12171875 17.10695312 -3.0859375 17.09765625 C-5.39088657 17.07413636 -7.6953116 17.04126853 -10 17 C-9.48679584 12.53352005 -7.87931999 10.21112591 -5 6.8125 C-2.21368125 3.59404028 -2.21368125 3.59404028 0 0 Z " fill="#093D57" transform="translate(156,168)"/>
<path d="M0 0 C1.87280273 0.29760742 1.87280273 0.29760742 4 1 C5.52910915 3.43307387 6.81477005 5.74251289 8.0625 8.3125 C11.0835633 14.4294688 11.0835633 14.4294688 15 20 C14.67 20.66 14.34 21.32 14 22 C13.3503125 21.0409375 13.3503125 21.0409375 12.6875 20.0625 C11.08760823 17.73253997 11.08760823 17.73253997 8 17 C5 11.77777778 5 11.77777778 5 9 C3.02 9 1.04 9 -1 9 C-0.835 8.2575 -0.67 7.515 -0.5 6.75 C0.11925696 3.80993422 0.11925696 3.80993422 0 0 Z " fill="#1C4E67" transform="translate(78,113)"/>
<path d="M0 0 C0.33 0 0.66 0 1 0 C1 12.21 1 24.42 1 37 C0.67 37 0.34 37 0 37 C-2.5472198 24.17292886 -2.32199867 12.85392123 0 0 Z " fill="#104055" transform="translate(37,163)"/>
<path d="M0 0 C0.33 0 0.66 0 1 0 C1.19972589 4.10366512 1.38249433 8.20792632 1.5625 12.3125 C1.61857422 13.46041016 1.67464844 14.60832031 1.73242188 15.79101562 C2.03709395 22.96096509 1.86666826 29.87416142 1 37 C0.67 37 0.34 37 0 37 C-2.10474041 10.84108352 -2.10474041 10.84108352 0 0 Z " fill="#0A526E" transform="translate(38,164)"/>
<path d="M0 0 C1.32 0.66 2.64 1.32 4 2 C4 3.65 4 5.3 4 7 C3.01 7.33 2.02 7.66 1 8 C1 8.66 1 9.32 1 10 C-0.375 11.5 -0.375 11.5 -2 13 C-2.66 13.66 -3.32 14.32 -4 15 C-4.66 15 -5.32 15 -6 15 C-4.40109514 9.80355921 -2.25861997 4.93387858 0 0 Z " fill="#17556D" transform="translate(145,138)"/>
<path d="M0 0 C0 0.66 0 1.32 0 2 C0.99 2.66 1.98 3.32 3 4 C3.99 5.485 3.99 5.485 5 7 C3.783125 6.566875 2.56625 6.13375 1.3125 5.6875 C-4.68448771 3.67573096 -10.82563257 2.34557312 -17 1 C-17 0.67 -17 0.34 -17 0 C-11.99632677 -1.33431286 -4.7581135 -2.37905675 0 0 Z " fill="#1C5266" transform="translate(179,67)"/>
<path d="M0 0 C0.66 0.33 1.32 0.66 2 1 C0.02 1.66 -1.96 2.32 -4 3 C-4 3.66 -4 4.32 -4 5 C-10.97200851 8.04702594 -16.52994747 8.15890535 -24 7 C-24 6.67 -24 6.34 -24 6 C-22.40671875 5.72736328 -22.40671875 5.72736328 -20.78125 5.44921875 C-11.79197429 3.96540183 -11.79197429 3.96540183 -3.125 1.25 C-2.09375 0.8375 -1.0625 0.425 0 0 Z " fill="#2D5569" transform="translate(182,161)"/>
<path d="M0 0 C2.70447193 2.03235464 5.15365311 4.15084489 7 7 C6.69140625 9.23046875 6.69140625 9.23046875 6 11 C5.62488281 10.51789063 5.24976562 10.03578125 4.86328125 9.5390625 C0.8413764 4.45669822 0.8413764 4.45669822 -5 2 C-7.7336432 2.29519768 -7.7336432 2.29519768 -10 3 C-9.67 2.01 -9.34 1.02 -9 0 C-5.2812901 -1.23956997 -3.75722386 -1.15606888 0 0 Z " fill="#15485A" transform="translate(118,57)"/>
<path d="M0 0 C0.66 0 1.32 0 2 0 C2.72279099 4.80856785 2.99457475 8.51031896 0.21875 12.66796875 C-1.77823782 14.87942181 -3.81210617 16.97815169 -6 19 C-6.99 18.67 -7.98 18.34 -9 18 C-8.525625 17.566875 -8.05125 17.13375 -7.5625 16.6875 C-5.76313043 14.97690387 -5.76313043 14.97690387 -5 12 C-4.34 11.62875 -3.68 11.2575 -3 10.875 C0.17399205 7.89938245 -0.17547702 4.18512687 0 0 Z " fill="#104659" transform="translate(68,71)"/>
<path d="M0 0 C0.74958984 0.01353516 1.49917969 0.02707031 2.27148438 0.04101562 C4.11879767 0.07631461 5.96574066 0.13012083 7.8125 0.1875 C7.8125 0.8475 7.8125 1.5075 7.8125 2.1875 C-0.1075 2.6825 -0.1075 2.6825 -8.1875 3.1875 C-8.5175 4.1775 -8.8475 5.1675 -9.1875 6.1875 C-9.8475 5.1975 -10.5075 4.2075 -11.1875 3.1875 C-8.45797954 -0.92296361 -4.41882331 -0.15051014 0 0 Z " fill="#194456" transform="translate(64.1875,14.8125)"/>
<path d="M0 0 C8.3201122 0.63674328 16.20077079 1.98977118 24 5 C20.26182076 6.24605975 18.53291565 5.5522163 14.75 4.5625 C9.97700714 3.38925036 5.89187961 2.65870607 1 3 C0.67 5.64 0.34 8.28 0 11 C-0.33 11 -0.66 11 -1 11 C-1.02688151 9.35425434 -1.04634123 7.70838587 -1.0625 6.0625 C-1.07410156 5.14597656 -1.08570312 4.22945312 -1.09765625 3.28515625 C-1 1 -1 1 0 0 Z " fill="#35596B" transform="translate(70,33)"/>
<path d="M0 0 C0.67578125 1.703125 0.67578125 1.703125 1 4 C-0.14453125 6.359375 -0.14453125 6.359375 -1.8125 8.75 C-2.62654297 9.94882813 -2.62654297 9.94882813 -3.45703125 11.171875 C-3.96621094 11.77515625 -4.47539063 12.3784375 -5 13 C-5.66 13 -6.32 13 -7 13 C-7.66 14.32 -8.32 15.64 -9 17 C-8.43310319 12.6852854 -6.88294703 9.86348525 -4.5 6.25 C-3.55640625 4.80367188 -3.55640625 4.80367188 -2.59375 3.328125 C-1 1 -1 1 0 0 Z " fill="#104962" transform="translate(73,109)"/>
<path d="M0 0 C2.31377205 3.47065807 2.88984473 6.67040155 3.625 10.6875 C3.82609375 11.7403418 3.82609375 11.7403418 4.03125 12.81445312 C4.3602717 14.54181706 4.68095312 16.27076591 5 18 C4.01 18.33 3.02 18.66 2 19 C1.46839543 16.58525383 0.94945234 14.16891893 0.4375 11.75 C0.21030273 10.72712891 0.21030273 10.72712891 -0.02148438 9.68359375 C-0.75233495 6.18230962 -1.32203546 3.39701827 0 0 Z " fill="#0F4258" transform="translate(147,91)"/>
<path d="M0 0 C4.24639773 0.48996897 7.09488747 3.06381675 10 6 C11.48692034 7.94303088 12.73071022 9.90078998 14 12 C9.30234629 10.71882171 6.78197339 8.00472107 3.55078125 4.55859375 C2.06489775 2.89969455 2.06489775 2.89969455 0 2 C0 1.34 0 0.68 0 0 Z " fill="#124053" transform="translate(203,66)"/>
<path d="M0 0 C1.32 0.33 2.64 0.66 4 1 C1.90320896 2.36695222 -0.2010938 3.71846991 -2.3125 5.0625 C-2.90740234 5.45244141 -3.50230469 5.84238281 -4.11523438 6.24414062 C-5.69609635 7.24211495 -7.34594712 8.12868696 -9 9 C-9.99 8.67 -10.98 8.34 -12 8 C-9.62582907 5.37591634 -7.15088121 3.61386598 -4 2 C-2.68 2 -1.36 2 0 2 C0 1.34 0 0.68 0 0 Z " fill="#245062" transform="translate(200,170)"/>
<path d="M0 0 C0.66 0.33 1.32 0.66 2 1 C0.43006215 6.02380113 -2.60115742 10.0469983 -6 14 C-6.99 14.495 -6.99 14.495 -8 15 C-7.3922283 11.60407563 -6.14495305 9.61353517 -4 6.9375 C-2.0569079 4.50396398 -0.9987139 2.99614169 0 0 Z " fill="#194C5F" transform="translate(220,147)"/>
<path d="M0 0 C3.37244652 3.99697365 6.71374722 8.27090179 9 13 C8.67 13.66 8.34 14.32 8 15 C7.566875 14.360625 7.13375 13.72125 6.6875 13.0625 C5.08760823 10.73253997 5.08760823 10.73253997 2 10 C0.19733731 6.58442859 -0.218934 3.83134499 0 0 Z " fill="#2C5769" transform="translate(84,120)"/>
<path d="M0 0 C4.79451797 -0.19178072 8.59888976 -0.00050465 13 2 C14.875 4.125 14.875 4.125 16 6 C12.21760329 5.34309381 8.78158474 4.279869 5.1875 2.9375 C4.21167969 2.57527344 3.23585937 2.21304688 2.23046875 1.83984375 C1.49441406 1.56269531 0.75835937 1.28554688 0 1 C0 0.67 0 0.34 0 0 Z " fill="#164B5D" transform="translate(174,52)"/>
<path d="M0 0 C-3.36736031 2.82858266 -6.87451958 4.4998253 -11 6 C-11.99 5.67 -12.98 5.34 -14 5 C-12.49587218 1.99174436 -10.13951699 1.69337029 -7.078125 0.59765625 C-4.64864679 -0.10104707 -2.51431136 -0.23571669 0 0 Z " fill="#215466" transform="translate(112,202)"/>
<path d="M0 0 C0.33 0 0.66 0 1 0 C2.13577159 5.04787372 1.98955002 8.96978742 1 14 C-0.546875 15.73828125 -0.546875 15.73828125 -2 17 C-1.85786703 15.10388566 -1.71113093 13.20811606 -1.5625 11.3125 C-1.48128906 10.25675781 -1.40007813 9.20101562 -1.31640625 8.11328125 C-1.03548319 5.34913703 -0.59843148 2.71054259 0 0 Z " fill="#1D4B65" transform="translate(38,150)"/>
<path d="M0 0 C1.32 0.33 2.64 0.66 4 1 C3.01 1 2.02 1 1 1 C0.34 3.64 -0.32 6.28 -1 9 C-1.33 9 -1.66 9 -2 9 C-2.33 10.65 -2.66 12.3 -3 14 C-3.33 14 -3.66 14 -4 14 C-4.07654536 9.48382401 -4.10228696 5.40914783 -3 1 C-2.34 1.33 -1.68 1.66 -1 2 C-0.67 1.34 -0.34 0.68 0 0 Z " fill="#1C576C" transform="translate(56,18)"/>
<path d="M0 0 C0.66 0.33 1.32 0.66 2 1 C-1.08297927 4.25914951 -3.9161331 7.06553673 -8 9 C-8.99 8.67 -9.98 8.34 -11 8 C-10.4225 7.7525 -9.845 7.505 -9.25 7.25 C-6.69041079 5.82800599 -5.03012677 4.09561473 -3 2 C-2.01 1.34 -1.02 0.68 0 0 Z " fill="#1B4A5F" transform="translate(190,156)"/>
<path d="M0 0 C4.31392226 0.4793247 6.16569547 1.7457985 9 5 C7.68 5.99 6.36 6.98 5 8 C4.87625 7.071875 4.87625 7.071875 4.75 6.125 C4.18741541 3.81562433 4.18741541 3.81562433 1.9375 2.75 C1.298125 2.5025 0.65875 2.255 0 2 C0 1.34 0 0.68 0 0 Z " fill="#154051" transform="translate(117,159)"/>
<path d="M0 0 C9.37226277 -0.15620438 9.37226277 -0.15620438 12 1 C12.33 1.99 12.66 2.98 13 4 C11.20676747 3.71812064 9.41542874 3.4241719 7.625 3.125 C6.62726563 2.96257813 5.62953125 2.80015625 4.6015625 2.6328125 C2 2 2 2 0 0 Z " fill="#10475D" transform="translate(81,18)"/>
<path d="M0 0 C1 2 1 2 -0.0625 5.5 C-1.46306098 8.64798987 -1.82603484 8.92154512 -5.1875 10.4375 C-6.115625 10.623125 -7.04375 10.80875 -8 11 C-7.59007812 10.45730469 -7.18015625 9.91460937 -6.7578125 9.35546875 C-6.21898437 8.64003906 -5.68015625 7.92460937 -5.125 7.1875 C-4.59132812 6.47980469 -4.05765625 5.77210938 -3.5078125 5.04296875 C-2.29185219 3.39543703 -1.13583859 1.70375789 0 0 Z " fill="#1C5465" transform="translate(205,140)"/>
<path d="M0 0 C0.33 0 0.66 0 1 0 C1.14285714 8.57142857 1.14285714 8.57142857 0 12 C-0.99 11.67 -1.98 11.34 -3 11 C-2.01 7.37 -1.02 3.74 0 0 Z " fill="#16475E" transform="translate(164,132)"/>
<path d="M0 0 C0.66 0.33 1.32 0.66 2 1 C1.67 2.32 1.34 3.64 1 5 C0.401875 5.0825 -0.19625 5.165 -0.8125 5.25 C-3.5966296 6.20455872 -4.43311142 7.57132271 -6 10 C-6.33 9.01 -6.66 8.02 -7 7 C-4.69 4.69 -2.38 2.38 0 0 Z " fill="#0F5A74" transform="translate(132,166)"/>
<path d="M0 0 C4.75 0.75 4.75 0.75 7 3 C7 3.99 7 4.98 7 6 C6.01 5.67 5.02 5.34 4 5 C4 4.34 4 3.68 4 3 C2.35 2.67 0.7 2.34 -1 2 C-0.67 1.34 -0.34 0.68 0 0 Z " fill="#124056" transform="translate(134,44)"/>
<path d="M0 0 C0.33 0 0.66 0 1 0 C1.20674944 5.78898419 0.59162079 10.42932723 -1 16 C-1.33 16 -1.66 16 -2 16 C-2.2358396 10.22192976 -1.86783046 5.48675196 0 0 Z " fill="#164D62" transform="translate(53,26)"/>
<path d="M0 0 C3.96 0 7.92 0 12 0 C12 0.33 12 0.66 12 1 C11.30132812 1.13277344 10.60265625 1.26554688 9.8828125 1.40234375 C8.97273437 1.57894531 8.06265625 1.75554687 7.125 1.9375 C6.22007812 2.11152344 5.31515625 2.28554687 4.3828125 2.46484375 C2.00043683 2.89963701 2.00043683 2.89963701 0 4 C0 2.68 0 1.36 0 0 Z " fill="#0E3D57" transform="translate(156,168)"/>
<path d="M0 0 C2.475 0.99 2.475 0.99 5 2 C4.67 2.99 4.34 3.98 4 5 C3.01 5.33 2.02 5.66 1 6 C-0.0625 4.125 -0.0625 4.125 -1 2 C-0.67 1.34 -0.34 0.68 0 0 Z " fill="#175776" transform="translate(118,161)"/>
<path d="M0 0 C0.33 0.66 0.66 1.32 1 2 C0.22265625 3.9453125 0.22265625 3.9453125 -0.9375 6.125 C-1.31777344 6.84945312 -1.69804688 7.57390625 -2.08984375 8.3203125 C-2.39019531 8.87460938 -2.69054688 9.42890625 -3 10 C-3.33 10 -3.66 10 -4 10 C-3.38461538 3.47692308 -3.38461538 3.47692308 -1.4375 1.0625 C-0.7259375 0.5365625 -0.7259375 0.5365625 0 0 Z " fill="#154A5E" transform="translate(52,114)"/>
<path d="M0 0 C4.50802601 1.25805377 7.4912812 2.90407165 11 6 C5.64951939 5.62671065 3.49087093 4.0042343 0 0 Z " fill="#255563" transform="translate(187,55)"/>
<path d="M0 0 C0.66 0.99 1.32 1.98 2 3 C0.71034824 4.37562854 -0.62689293 5.70766393 -2 7 C-2.66 7 -3.32 7 -4 7 C-2.92598892 4.08482708 -2.22189824 2.22189824 0 0 Z " fill="#174965" transform="translate(155,170)"/>
<path d="M0 0 C0.99 0.33 1.98 0.66 3 1 C2.01 1.495 2.01 1.495 1 2 C0.67 2.99 0.34 3.98 0 5 C-2.0625 5.6875 -2.0625 5.6875 -4 6 C-3.0022242 3.00667261 -2.2477975 2.05233685 0 0 Z " fill="#135974" transform="translate(204,163)"/>
<path d="M0 0 C0.66 0.33 1.32 0.66 2 1 C0.68 3.64 -0.64 6.28 -2 9 C-2.99 8.34 -3.98 7.68 -5 7 C-4.54625 6.401875 -4.0925 5.80375 -3.625 5.1875 C-2.36704087 3.49409348 -1.17015276 1.75522914 0 0 Z " fill="#1F556B" transform="translate(66,122)"/>
<path d="M0 0 C6.93 0.495 6.93 0.495 14 1 C14 1.33 14 1.66 14 2 C12.41986783 2.25028811 10.83557694 2.47440946 9.25 2.6875 C7.92742187 2.87892578 7.92742187 2.87892578 6.578125 3.07421875 C4 3 4 3 0 0 Z " fill="#285568" transform="translate(156,48)"/>
<path d="M0 0 C1 2 1 2 0.3125 4.5 C-1.15567038 7.29651501 -2.09303901 7.93411431 -5 9 C-3.7508258 5.54074837 -2.32472205 2.85306797 0 0 Z " fill="#0F425C" transform="translate(153,161)"/>
<path d="M0 0 C0.33 0 0.66 0 1 0 C1.125 2.875 1.125 2.875 1 6 C0.34 6.66 -0.32 7.32 -1 8 C-1.66 8 -2.32 8 -3 8 C-1.125 2.25 -1.125 2.25 0 0 Z " fill="#275568" transform="translate(142,145)"/>
<path d="M0 0 C0.99 0.33 1.98 0.66 3 1 C1.8125 2.5 1.8125 2.5 0 4 C-2.6875 4.1875 -2.6875 4.1875 -5 4 C-3.36587557 2.29159719 -2.13093906 1.06546953 0 0 Z " fill="#0C5C77" transform="translate(70,91)"/>
</svg>
